<svg id="visual" viewBox="0 0 900 600" width="900" height="600" xmlns="http://www.w3.org/2000/svg" xmlns:xlink="http://www.w3.org/1999/xlink" version="1.1"><rect x="0" y="0" width="900" height="600" fill="#001220"></rect><path d="M0 365L21.5 362.7C43 360.3 86 355.7 128.8 354.5C171.7 353.3 214.3 355.7 257.2 358.5C300 361.3 343 364.7 385.8 367.7C428.7 370.7 471.3 373.3 514.2 371.8C557 370.3 600 364.7 642.8 367.5C685.7 370.3 728.3 381.7 771.2 388.8C814 396 857 399 878.5 400.5L900 402L900 601L878.5 601C857 601 814 601 771.2 601C728.3 601 685.7 601 642.8 601C600 601 557 601 514.2 601C471.3 601 428.7 601 385.8 601C343 601 300 601 257.2 601C214.3 601 171.7 601 128.8 601C86 601 43 601 21.5 601L0 601Z" fill="#fa7268"></path><path d="M0 460L21.5 450.2C43 440.3 86 420.7 128.8 422.8C171.7 425 214.3 449 257.2 450.2C300 451.3 343 429.7 385.8 427.8C428.7 426 471.3 444 514.2 449.7C557 455.3 600 448.7 642.8 438.8C685.7 429 728.3 416 771.2 422.3C814 428.7 857 454.3 878.5 467.2L900 480L900 601L878.5 601C857 601 814 601 771.2 601C728.3 601 685.7 601 642.8 601C600 601 557 601 514.2 601C471.3 601 428.7 601 385.8 601C343 601 300 601 257.2 601C214.3 601 171.7 601 128.8 601C86 601 43 601 21.5 601L0 601Z" fill="#ef5f67"></path><path d="M0 492L21.5 494.8C43 497.7 86 503.3 128.8 496.3C171.7 489.3 214.3 469.7 257.2 466.3C300 463 343 476 385.8 481C428.7 486 471.3 483 514.2 482.5C557 482 600 484 642.8 488C685.7 492 728.3 498 771.2 495.8C814 493.7 857 483.3 878.5 478.2L900 473L900 601L878.5 601C857 601 814 601 771.2 601C728.3 601 685.7 601 642.8 601C600 601 557 601 514.2 601C471.3 601 428.7 601 385.8 601C343 601 300 601 257.2 601C214.3 601 171.7 601 128.8 601C86 601 43 601 21.5 601L0 601Z" fill="#e34c67"></path><path d="M0 503L21.5 504.8C43 506.7 86 510.3 128.8 514.5C171.7 518.7 214.3 523.3 257.2 522.3C300 521.3 343 514.7 385.8 515.3C428.7 516 471.3 524 514.2 526.2C557 528.3 600 524.7 642.8 520.2C685.7 515.7 728.3 510.3 771.2 513.5C814 516.7 857 528.3 878.5 534.2L900 540L900 601L878.5 601C857 601 814 601 771.2 601C728.3 601 685.7 601 642.8 601C600 601 557 601 514.2 601C471.3 601 428.7 601 385.8 601C343 601 300 601 257.2 601C214.3 601 171.7 601 128.8 601C86 601 43 601 21.5 601L0 601Z" fill="#d53867"></path><path d="M0 553L21.5 553.3C43 553.7 86 554.3 128.8 550.3C171.7 546.3 214.3 537.7 257.2 538.7C300 539.7 343 550.3 385.8 556.3C428.7 562.3 471.3 563.7 514.2 564.5C557 565.3 600 565.7 642.8 566C685.7 566.3 728.3 566.7 771.2 563.5C814 560.3 857 553.7 878.5 550.3L900 547L900 601L878.5 601C857 601 814 601 771.2 601C728.3 601 685.7 601 642.8 601C600 601 557 601 514.2 601C471.3 601 428.7 601 385.8 601C343 601 300 601 257.2 601C214.3 601 171.7 601 128.8 601C86 601 43 601 21.5 601L0 601Z" fill="#c62368"></path></svg>