<svg id="visual" viewBox="0 0 900 600" width="900" height="600" xmlns="http://www.w3.org/2000/svg" xmlns:xlink="http://www.w3.org/1999/xlink" version="1.1"><path d="M0 73L13.7 75C27.3 77 54.7 81 82 82C109.3 83 136.7 81 163.8 80C191 79 218 79 245.2 75C272.3 71 299.7 63 327 67C354.3 71 381.7 87 409 98C436.3 109 463.7 115 491 114C518.3 113 545.7 105 573 98C600.3 91 627.7 85 654.8 80C682 75 709 71 736.2 70C763.3 69 790.7 71 818 71C845.3 71 872.7 69 886.3 68L900 67L900 0L886.3 0C872.7 0 845.3 0 818 0C790.7 0 763.3 0 736.2 0C709 0 682 0 654.8 0C627.7 0 600.3 0 573 0C545.7 0 518.3 0 491 0C463.7 0 436.3 0 409 0C381.7 0 354.3 0 327 0C299.7 0 272.3 0 245.2 0C218 0 191 0 163.8 0C136.7 0 109.3 0 82 0C54.7 0 27.3 0 13.7 0L0 0Z" fill="#000f19"></path><path d="M0 331L13.7 318C27.3 305 54.7 279 82 268C109.3 257 136.7 261 163.8 255C191 249 218 233 245.2 240C272.3 247 299.7 277 327 296C354.3 315 381.7 323 409 320C436.3 317 463.7 303 491 280C518.3 257 545.7 225 573 213C600.3 201 627.7 209 654.8 216C682 223 709 229 736.2 220C763.3 211 790.7 187 818 199C845.3 211 872.7 259 886.3 283L900 307L900 65L886.3 66C872.7 67 845.3 69 818 69C790.7 69 763.3 67 736.2 68C709 69 682 73 654.8 78C627.7 83 600.3 89 573 96C545.7 103 518.3 111 491 112C463.7 113 436.3 107 409 96C381.7 85 354.3 69 327 65C299.7 61 272.3 69 245.2 73C218 77 191 77 163.8 78C136.7 79 109.3 81 82 80C54.7 79 27.3 75 13.7 73L0 71Z" fill="#00111c"></path><path d="M0 391L13.7 384C27.3 377 54.7 363 82 353C109.3 343 136.7 337 163.8 330C191 323 218 315 245.2 321C272.3 327 299.7 347 327 361C354.3 375 381.7 383 409 380C436.3 377 463.7 363 491 347C518.3 331 545.7 313 573 308C600.3 303 627.7 311 654.8 318C682 325 709 331 736.2 322C763.3 313 790.7 289 818 296C845.3 303 872.7 341 886.3 360L900 379L900 305L886.3 281C872.7 257 845.3 209 818 197C790.7 185 763.3 209 736.2 218C709 227 682 221 654.8 214C627.7 207 600.3 199 573 211C545.7 223 518.3 255 491 278C463.7 301 436.3 315 409 318C381.7 321 354.3 313 327 294C299.7 275 272.3 245 245.2 238C218 231 191 247 163.8 253C136.7 259 109.3 255 82 266C54.7 277 27.3 303 13.7 316L0 329Z" fill="#001220"></path><path d="M0 529L13.7 521C27.3 513 54.7 497 82 487C109.3 477 136.7 473 163.8 472C191 471 218 473 245.2 484C272.3 495 299.7 515 327 519C354.3 523 381.7 511 409 504C436.3 497 463.7 495 491 492C518.3 489 545.7 485 573 480C600.3 475 627.7 469 654.8 472C682 475 709 487 736.2 488C763.3 489 790.7 479 818 483C845.3 487 872.7 505 886.3 514L900 523L900 377L886.3 358C872.7 339 845.3 301 818 294C790.7 287 763.3 311 736.2 320C709 329 682 323 654.8 316C627.7 309 600.3 301 573 306C545.7 311 518.3 329 491 345C463.7 361 436.3 375 409 378C381.7 381 354.3 373 327 359C299.7 345 272.3 325 245.2 319C218 313 191 321 163.8 328C136.7 335 109.3 341 82 351C54.7 361 27.3 375 13.7 382L0 389Z" fill="#012640"></path><path d="M0 601L13.7 601C27.3 601 54.7 601 82 601C109.3 601 136.7 601 163.8 601C191 601 218 601 245.2 601C272.3 601 299.7 601 327 601C354.3 601 381.7 601 409 601C436.3 601 463.7 601 491 601C518.3 601 545.7 601 573 601C600.3 601 627.7 601 654.8 601C682 601 709 601 736.2 601C763.3 601 790.7 601 818 601C845.3 601 872.7 601 886.3 601L900 601L900 521L886.3 512C872.7 503 845.3 485 818 481C790.7 477 763.3 487 736.2 486C709 485 682 473 654.8 470C627.7 467 600.3 473 573 478C545.7 483 518.3 487 491 490C463.7 493 436.3 495 409 502C381.7 509 354.3 521 327 517C299.7 513 272.3 493 245.2 482C218 471 191 469 163.8 470C136.7 471 109.3 475 82 485C54.7 495 27.3 511 13.7 519L0 527Z" fill="#003a62"></path></svg>