<svg id="visual" viewBox="0 0 900 600" width="900" height="600" xmlns="http://www.w3.org/2000/svg" xmlns:xlink="http://www.w3.org/1999/xlink" version="1.1"><path d="M0 127L21.5 119C43 111 86 95 128.8 110C171.7 125 214.3 171 257.2 184C300 197 343 177 385.8 154C428.7 131 471.3 105 514.2 108C557 111 600 143 642.8 162C685.7 181 728.3 187 771.2 174C814 161 857 129 878.5 113L900 97L900 0L878.5 0C857 0 814 0 771.2 0C728.3 0 685.7 0 642.8 0C600 0 557 0 514.2 0C471.3 0 428.7 0 385.8 0C343 0 300 0 257.2 0C214.3 0 171.7 0 128.8 0C86 0 43 0 21.5 0L0 0Z" fill="#4361ee"></path><path d="M0 169L21.5 165C43 161 86 153 128.8 167C171.7 181 214.3 217 257.2 229C300 241 343 229 385.8 216C428.7 203 471.3 189 514.2 189C557 189 600 203 642.8 215C685.7 227 728.3 237 771.2 225C814 213 857 179 878.5 162L900 145L900 95L878.5 111C857 127 814 159 771.2 172C728.3 185 685.7 179 642.8 160C600 141 557 109 514.2 106C471.3 103 428.7 129 385.8 152C343 175 300 195 257.2 182C214.3 169 171.7 123 128.8 108C86 93 43 109 21.5 117L0 125Z" fill="#4257e4"></path><path d="M0 211L21.5 210C43 209 86 207 128.8 219C171.7 231 214.3 257 257.2 265C300 273 343 263 385.8 254C428.7 245 471.3 237 514.2 236C557 235 600 241 642.8 251C685.7 261 728.3 275 771.2 266C814 257 857 225 878.5 209L900 193L900 143L878.5 160C857 177 814 211 771.2 223C728.3 235 685.7 225 642.8 213C600 201 557 187 514.2 187C471.3 187 428.7 201 385.8 214C343 227 300 239 257.2 227C214.3 215 171.7 179 128.8 165C86 151 43 159 21.5 163L0 167Z" fill="#414cd9"></path><path d="M0 271L21.5 269C43 267 86 263 128.8 269C171.7 275 214.3 291 257.2 294C300 297 343 287 385.8 279C428.7 271 471.3 265 514.2 269C557 273 600 287 642.8 298C685.7 309 728.3 317 771.2 309C814 301 857 277 878.5 265L900 253L900 191L878.5 207C857 223 814 255 771.2 264C728.3 273 685.7 259 642.8 249C600 239 557 233 514.2 234C471.3 235 428.7 243 385.8 252C343 261 300 271 257.2 263C214.3 255 171.7 229 128.8 217C86 205 43 207 21.5 208L0 209Z" fill="#4041ce"></path><path d="M0 385L21.5 372C43 359 86 333 128.8 335C171.7 337 214.3 367 257.2 376C300 385 343 373 385.8 358C428.7 343 471.3 325 514.2 336C557 347 600 387 642.8 401C685.7 415 728.3 403 771.2 387C814 371 857 351 878.5 341L900 331L900 251L878.5 263C857 275 814 299 771.2 307C728.3 315 685.7 307 642.8 296C600 285 557 271 514.2 267C471.3 263 428.7 269 385.8 277C343 285 300 295 257.2 292C214.3 289 171.7 273 128.8 267C86 261 43 265 21.5 267L0 269Z" fill="#3e36c4"></path><path d="M0 445L21.5 435C43 425 86 405 128.8 411C171.7 417 214.3 449 257.2 454C300 459 343 437 385.8 414C428.7 391 471.3 367 514.2 379C557 391 600 439 642.8 458C685.7 477 728.3 467 771.2 450C814 433 857 409 878.5 397L900 385L900 329L878.5 339C857 349 814 369 771.2 385C728.3 401 685.7 413 642.8 399C600 385 557 345 514.2 334C471.3 323 428.7 341 385.8 356C343 371 300 383 257.2 374C214.3 365 171.7 335 128.8 333C86 331 43 357 21.5 370L0 383Z" fill="#3d2bb9"></path><path d="M0 493L21.5 478C43 463 86 433 128.8 435C171.7 437 214.3 471 257.2 478C300 485 343 465 385.8 446C428.7 427 471.3 409 514.2 422C557 435 600 479 642.8 498C685.7 517 728.3 511 771.2 494C814 477 857 449 878.5 435L900 421L900 383L878.5 395C857 407 814 431 771.2 448C728.3 465 685.7 475 642.8 456C600 437 557 389 514.2 377C471.3 365 428.7 389 385.8 412C343 435 300 457 257.2 452C214.3 447 171.7 415 128.8 409C86 403 43 423 21.5 433L0 443Z" fill="#3c1dae"></path><path d="M0 601L21.5 601C43 601 86 601 128.8 601C171.7 601 214.3 601 257.2 601C300 601 343 601 385.8 601C428.7 601 471.3 601 514.2 601C557 601 600 601 642.8 601C685.7 601 728.3 601 771.2 601C814 601 857 601 878.5 601L900 601L900 419L878.5 433C857 447 814 475 771.2 492C728.3 509 685.7 515 642.8 496C600 477 557 433 514.2 420C471.3 407 428.7 425 385.8 444C343 463 300 483 257.2 476C214.3 469 171.7 435 128.8 433C86 431 43 461 21.5 476L0 491Z" fill="#3a0ca3"></path></svg>